<svg width="1050" height="335" viewBox="0 0 1050 335" fill="none" xmlns="http://www.w3.org/2000/svg">
<g filter="url(#filter0_d_1_56)">
<path d="M72.2539 135.808H103.07V160H40.2859V58.048H72.2539V135.808ZM151.722 161.008C143.562 161.008 136.218 159.328 129.69 155.968C123.162 152.608 118.026 147.808 114.282 141.568C110.634 135.232 108.81 127.84 108.81 119.392C108.81 110.944 110.634 103.6 114.282 97.36C118.026 91.024 123.162 86.176 129.69 82.816C136.218 79.456 143.562 77.776 151.722 77.776C159.882 77.776 167.226 79.456 173.754 82.816C180.282 86.176 185.37 91.024 189.018 97.36C192.762 103.6 194.634 110.944 194.634 119.392C194.634 127.84 192.762 135.232 189.018 141.568C185.37 147.808 180.282 152.608 173.754 155.968C167.226 159.328 159.882 161.008 151.722 161.008ZM151.722 133.36C154.698 133.36 157.194 132.208 159.21 129.904C161.226 127.504 162.234 124 162.234 119.392C162.234 114.784 161.226 111.328 159.21 109.024C157.194 106.624 154.698 105.424 151.722 105.424C148.746 105.424 146.25 106.624 144.234 109.024C142.218 111.328 141.21 114.784 141.21 119.392C141.21 124 142.17 127.504 144.09 129.904C146.106 132.208 148.65 133.36 151.722 133.36ZM236.645 93.76C239.909 89.056 243.893 85.312 248.597 82.528C253.301 79.648 258.197 78.208 263.285 78.208V112.336H254.213C248.165 112.336 243.701 113.392 240.821 115.504C238.037 117.616 236.645 121.36 236.645 126.736V160H204.677V78.784H236.645V93.76ZM350.519 118.672C350.519 120.88 350.375 122.992 350.087 125.008H298.679C299.159 132.016 302.087 135.52 307.463 135.52C310.919 135.52 313.415 133.936 314.951 130.768H348.791C347.639 136.528 345.191 141.712 341.447 146.32C337.799 150.832 333.143 154.432 327.479 157.12C321.911 159.712 315.767 161.008 309.047 161.008C300.983 161.008 293.783 159.328 287.447 155.968C281.207 152.608 276.311 147.808 272.759 141.568C269.303 135.232 267.575 127.84 267.575 119.392C267.575 110.944 269.303 103.6 272.759 97.36C276.311 91.024 281.207 86.176 287.447 82.816C293.783 79.456 300.983 77.776 309.047 77.776C317.111 77.776 324.263 79.456 330.503 82.816C336.839 86.08 341.735 90.784 345.191 96.928C348.743 103.072 350.519 110.32 350.519 118.672ZM318.119 111.04C318.119 108.352 317.255 106.336 315.527 104.992C313.799 103.552 311.639 102.832 309.047 102.832C303.383 102.832 300.071 105.568 299.111 111.04H318.119ZM469.062 78.208C479.43 78.208 487.446 81.328 493.11 87.568C498.87 93.808 501.75 102.256 501.75 112.912V160H469.926V116.944C469.926 113.488 468.87 110.8 466.758 108.88C464.742 106.864 462.006 105.856 458.55 105.856C454.998 105.856 452.214 106.864 450.198 108.88C448.182 110.8 447.174 113.488 447.174 116.944V160H415.35V116.944C415.35 113.488 414.294 110.8 412.182 108.88C410.166 106.864 407.43 105.856 403.974 105.856C400.422 105.856 397.638 106.864 395.622 108.88C393.606 110.8 392.598 113.488 392.598 116.944V160H360.63V78.784H392.598V89.728C394.902 86.272 398.022 83.488 401.958 81.376C405.99 79.264 410.694 78.208 416.07 78.208C421.926 78.208 427.11 79.504 431.622 82.096C436.134 84.592 439.734 88.144 442.422 92.752C445.398 88.528 449.19 85.072 453.798 82.384C458.406 79.6 463.494 78.208 469.062 78.208ZM556.195 72.304C550.627 72.304 546.163 70.816 542.803 67.84C539.443 64.864 537.763 61.12 537.763 56.608C537.763 52 539.443 48.208 542.803 45.232C546.163 42.16 550.627 40.624 556.195 40.624C561.667 40.624 566.083 42.16 569.443 45.232C572.803 48.208 574.483 52 574.483 56.608C574.483 61.12 572.803 64.864 569.443 67.84C566.083 70.816 561.667 72.304 556.195 72.304ZM572.035 78.784V160H540.067V78.784H572.035ZM618.441 89.872C620.457 86.128 623.337 83.2 627.081 81.088C630.921 78.88 635.481 77.776 640.761 77.776C647.097 77.776 652.809 79.456 657.897 82.816C662.985 86.08 666.969 90.88 669.849 97.216C672.825 103.456 674.313 110.848 674.313 119.392C674.313 127.936 672.825 135.376 669.849 141.712C666.969 147.952 662.985 152.752 657.897 156.112C652.809 159.376 647.097 161.008 640.761 161.008C635.481 161.008 630.921 159.952 627.081 157.84C623.337 155.632 620.457 152.656 618.441 148.912V198.88H586.473V78.784H618.441V89.872ZM641.913 119.392C641.913 115.072 640.809 111.712 638.601 109.312C636.393 106.912 633.561 105.712 630.105 105.712C626.649 105.712 623.817 106.912 621.609 109.312C619.401 111.712 618.297 115.072 618.297 119.392C618.297 123.712 619.401 127.072 621.609 129.472C623.817 131.872 626.649 133.072 630.105 133.072C633.561 133.072 636.393 131.872 638.601 129.472C640.809 127.072 641.913 123.712 641.913 119.392ZM720.492 161.008C712.812 161.008 705.996 159.76 700.044 157.264C694.188 154.768 689.532 151.312 686.076 146.896C682.62 142.48 680.652 137.488 680.172 131.92H710.844C711.228 134.32 712.236 136.096 713.868 137.248C715.596 138.4 717.756 138.976 720.348 138.976C721.98 138.976 723.276 138.64 724.236 137.968C725.196 137.2 725.676 136.288 725.676 135.232C725.676 133.408 724.668 132.112 722.652 131.344C720.636 130.576 717.228 129.712 712.428 128.752C706.572 127.6 701.724 126.352 697.884 125.008C694.14 123.664 690.828 121.36 687.948 118.096C685.164 114.832 683.772 110.32 683.772 104.56C683.772 99.568 685.068 95.056 687.66 91.024C690.348 86.896 694.284 83.68 699.468 81.376C704.652 78.976 710.94 77.776 718.332 77.776C729.276 77.776 737.82 80.464 743.964 85.84C750.204 91.216 753.948 98.224 755.196 106.864H726.828C726.348 104.656 725.34 102.976 723.804 101.824C722.268 100.576 720.204 99.952 717.612 99.952C715.98 99.952 714.732 100.288 713.868 100.96C713.004 101.536 712.572 102.448 712.572 103.696C712.572 105.328 713.58 106.576 715.596 107.44C717.612 108.208 720.828 109.024 725.244 109.888C731.1 111.04 736.044 112.336 740.076 113.776C744.108 115.216 747.612 117.712 750.588 121.264C753.564 124.72 755.052 129.52 755.052 135.664C755.052 140.464 753.66 144.784 750.876 148.624C748.092 152.464 744.06 155.488 738.78 157.696C733.596 159.904 727.5 161.008 720.492 161.008ZM853.707 78.784V160H821.739V147.616C819.243 151.456 815.883 154.576 811.659 156.976C807.531 159.376 802.587 160.576 796.827 160.576C787.515 160.576 780.219 157.456 774.939 151.216C769.755 144.976 767.163 136.528 767.163 125.872V78.784H798.987V121.84C798.987 125.68 799.995 128.752 802.011 131.056C804.123 133.264 806.907 134.368 810.363 134.368C813.915 134.368 816.699 133.264 818.715 131.056C820.731 128.752 821.739 125.68 821.739 121.84V78.784H853.707ZM976.577 78.208C986.945 78.208 994.961 81.328 1000.63 87.568C1006.39 93.808 1009.27 102.256 1009.27 112.912V160H977.441V116.944C977.441 113.488 976.385 110.8 974.273 108.88C972.257 106.864 969.521 105.856 966.065 105.856C962.513 105.856 959.729 106.864 957.713 108.88C955.697 110.8 954.689 113.488 954.689 116.944V160H922.865V116.944C922.865 113.488 921.809 110.8 919.697 108.88C917.681 106.864 914.945 105.856 911.489 105.856C907.937 105.856 905.153 106.864 903.137 108.88C901.121 110.8 900.113 113.488 900.113 116.944V160H868.145V78.784H900.113V89.728C902.417 86.272 905.537 83.488 909.473 81.376C913.505 79.264 918.209 78.208 923.585 78.208C929.441 78.208 934.625 79.504 939.137 82.096C943.649 84.592 947.249 88.144 949.937 92.752C952.913 88.528 956.705 85.072 961.313 82.384C965.921 79.6 971.009 78.208 976.577 78.208ZM326.012 269.808H356.828V294H294.044V192.048H326.012V269.808ZM405.48 295.008C397.32 295.008 389.976 293.328 383.448 289.968C376.92 286.608 371.784 281.808 368.04 275.568C364.392 269.232 362.568 261.84 362.568 253.392C362.568 244.944 364.392 237.6 368.04 231.36C371.784 225.024 376.92 220.176 383.448 216.816C389.976 213.456 397.32 211.776 405.48 211.776C413.64 211.776 420.984 213.456 427.512 216.816C434.04 220.176 439.128 225.024 442.776 231.36C446.52 237.6 448.392 244.944 448.392 253.392C448.392 261.84 446.52 269.232 442.776 275.568C439.128 281.808 434.04 286.608 427.512 289.968C420.984 293.328 413.64 295.008 405.48 295.008ZM405.48 267.36C408.456 267.36 410.952 266.208 412.968 263.904C414.984 261.504 415.992 258 415.992 253.392C415.992 248.784 414.984 245.328 412.968 243.024C410.952 240.624 408.456 239.424 405.48 239.424C402.504 239.424 400.008 240.624 397.992 243.024C395.976 245.328 394.968 248.784 394.968 253.392C394.968 258 395.928 261.504 397.848 263.904C399.864 266.208 402.408 267.36 405.48 267.36ZM490.402 227.76C493.666 223.056 497.65 219.312 502.354 216.528C507.058 213.648 511.954 212.208 517.042 212.208V246.336H507.97C501.922 246.336 497.458 247.392 494.578 249.504C491.794 251.616 490.402 255.36 490.402 260.736V294H458.434V212.784H490.402V227.76ZM604.277 252.672C604.277 254.88 604.133 256.992 603.845 259.008H552.437C552.917 266.016 555.845 269.52 561.221 269.52C564.677 269.52 567.173 267.936 568.709 264.768H602.549C601.397 270.528 598.949 275.712 595.205 280.32C591.557 284.832 586.901 288.432 581.237 291.12C575.669 293.712 569.525 295.008 562.805 295.008C554.741 295.008 547.541 293.328 541.205 289.968C534.965 286.608 530.069 281.808 526.517 275.568C523.061 269.232 521.333 261.84 521.333 253.392C521.333 244.944 523.061 237.6 526.517 231.36C530.069 225.024 534.965 220.176 541.205 216.816C547.541 213.456 554.741 211.776 562.805 211.776C570.869 211.776 578.021 213.456 584.261 216.816C590.597 220.08 595.493 224.784 598.949 230.928C602.501 237.072 604.277 244.32 604.277 252.672ZM571.877 245.04C571.877 242.352 571.013 240.336 569.285 238.992C567.557 237.552 565.397 236.832 562.805 236.832C557.141 236.832 553.829 239.568 552.869 245.04H571.877ZM722.82 212.208C733.188 212.208 741.204 215.328 746.868 221.568C752.628 227.808 755.508 236.256 755.508 246.912V294H723.684V250.944C723.684 247.488 722.628 244.8 720.516 242.88C718.5 240.864 715.764 239.856 712.308 239.856C708.756 239.856 705.972 240.864 703.956 242.88C701.94 244.8 700.932 247.488 700.932 250.944V294H669.108V250.944C669.108 247.488 668.052 244.8 665.94 242.88C663.924 240.864 661.188 239.856 657.732 239.856C654.18 239.856 651.396 240.864 649.38 242.88C647.364 244.8 646.356 247.488 646.356 250.944V294H614.388V212.784H646.356V223.728C648.66 220.272 651.78 217.488 655.716 215.376C659.748 213.264 664.452 212.208 669.828 212.208C675.684 212.208 680.868 213.504 685.38 216.096C689.892 218.592 693.492 222.144 696.18 226.752C699.156 222.528 702.948 219.072 707.556 216.384C712.164 213.6 717.252 212.208 722.82 212.208Z" fill="white"/>
</g>
<defs>
<filter id="filter0_d_1_56" x="0.285889" y="0.624023" width="1048.98" height="334.384" filterUnits="userSpaceOnUse" color-interpolation-filters="sRGB">
<feFlood flood-opacity="0" result="BackgroundImageFix"/>
<feColorMatrix in="SourceAlpha" type="matrix" values="0 0 0 0 0 0 0 0 0 0 0 0 0 0 0 0 0 0 127 0" result="hardAlpha"/>
<feOffset/>
<feGaussianBlur stdDeviation="20"/>
<feColorMatrix type="matrix" values="0 0 0 0 0 0 0 0 0 0 0 0 0 0 0 0 0 0 0.5 0"/>
<feBlend mode="normal" in2="BackgroundImageFix" result="effect1_dropShadow_1_56"/>
<feBlend mode="normal" in="SourceGraphic" in2="effect1_dropShadow_1_56" result="shape"/>
</filter>
</defs>
</svg>
