<svg width="280" height="54" viewBox="0 0 280 54" fill="none" xmlns="http://www.w3.org/2000/svg">
<path d="M18.7643 53.448C13.5163 53.448 9.20692 52.2107 5.83625 49.736C2.46558 47.2187 0.65225 43.6347 0.39625 38.984H13.7723C13.9003 40.5627 14.3696 41.7147 15.1803 42.44C15.9909 43.1653 17.0363 43.528 18.3163 43.528C19.4683 43.528 20.4069 43.2507 21.1323 42.696C21.9003 42.0987 22.2843 41.288 22.2843 40.264C22.2843 38.9413 21.6656 37.9173 20.4283 37.192C19.1909 36.4667 17.1856 35.656 14.4123 34.76C11.4683 33.7787 9.07892 32.84 7.24425 31.944C5.45225 31.0053 3.87358 29.6613 2.50825 27.912C1.18558 26.12 0.52425 23.7947 0.52425 20.936C0.52425 18.0347 1.24958 15.56 2.70025 13.512C4.15092 11.4213 6.15625 9.84267 8.71625 8.776C11.2763 7.70933 14.1776 7.176 17.4203 7.176C22.6683 7.176 26.8496 8.41333 29.9643 10.888C33.1216 13.32 34.8069 16.7547 35.0203 21.192H21.3883C21.3456 19.8267 20.9189 18.8027 20.1083 18.12C19.3403 17.4373 18.3376 17.096 17.1003 17.096C16.1616 17.096 15.3936 17.3733 14.7963 17.928C14.1989 18.4827 13.9003 19.272 13.9003 20.296C13.9003 21.1493 14.2203 21.896 14.8603 22.536C15.5429 23.1333 16.3749 23.6667 17.3563 24.136C18.3376 24.5627 19.7883 25.1173 21.7083 25.8C24.5669 26.7813 26.9136 27.7627 28.7483 28.744C30.6256 29.6827 32.2256 31.0267 33.5483 32.776C34.9136 34.4827 35.5963 36.6587 35.5963 39.304C35.5963 41.992 34.9136 44.4027 33.5483 46.536C32.2256 48.6693 30.2843 50.3547 27.7243 51.592C25.2069 52.8293 22.2203 53.448 18.7643 53.448ZM75.7318 34.632C75.7318 35.6133 75.6678 36.5947 75.5398 37.576H51.7958C51.9238 39.5387 52.4571 41.0107 53.3958 41.992C54.3771 42.9307 55.6144 43.4 57.1078 43.4C59.1984 43.4 60.6918 42.4613 61.5878 40.584H74.9638C74.4091 43.0587 73.3211 45.2773 71.6998 47.24C70.1211 49.16 68.1158 50.6747 65.6838 51.784C63.2518 52.8933 60.5638 53.448 57.6198 53.448C54.0784 53.448 50.9211 52.7013 48.1478 51.208C45.4171 49.7147 43.2624 47.5813 41.6838 44.808C40.1478 42.0347 39.3798 38.7707 39.3798 35.016C39.3798 31.2613 40.1478 28.0187 41.6838 25.288C43.2198 22.5147 45.3531 20.3813 48.0838 18.888C50.8571 17.3947 54.0358 16.648 57.6198 16.648C61.1611 16.648 64.2971 17.3733 67.0278 18.824C69.7584 20.2747 71.8918 22.3653 73.4278 25.096C74.9638 27.784 75.7318 30.9627 75.7318 34.632ZM62.9318 31.496C62.9318 29.96 62.4198 28.7653 61.3958 27.912C60.3718 27.016 59.0918 26.568 57.5558 26.568C56.0198 26.568 54.7611 26.9947 53.7798 27.848C52.7984 28.6587 52.1584 29.8747 51.8598 31.496H62.9318ZM93.4093 23.432C94.8173 21.384 96.5239 19.7627 98.5293 18.568C100.535 17.3733 102.689 16.776 104.993 16.776V30.152H101.473C98.7426 30.152 96.7159 30.6853 95.3933 31.752C94.0706 32.8187 93.4093 34.6747 93.4093 37.32V53H80.8653V17.096H93.4093V23.432ZM126.706 41.16L133.426 17.096H146.802L134.45 53H118.834L106.482 17.096H119.858L126.706 41.16ZM157.389 13.768C155.17 13.768 153.378 13.1707 152.013 11.976C150.69 10.7387 150.029 9.20266 150.029 7.368C150.029 5.49066 150.69 3.93333 152.013 2.696C153.378 1.45866 155.17 0.839996 157.389 0.839996C159.565 0.839996 161.314 1.45866 162.637 2.696C164.002 3.93333 164.685 5.49066 164.685 7.368C164.685 9.20266 164.002 10.7387 162.637 11.976C161.314 13.1707 159.565 13.768 157.389 13.768ZM163.597 17.096V53H151.053V17.096H163.597ZM168.692 35.016C168.692 31.304 169.46 28.0613 170.996 25.288C172.532 22.5147 174.666 20.3813 177.396 18.888C180.17 17.3947 183.327 16.648 186.868 16.648C191.434 16.648 195.274 17.9067 198.388 20.424C201.503 22.8987 203.508 26.376 204.404 30.856H191.092C190.324 28.5093 188.831 27.336 186.612 27.336C185.034 27.336 183.775 27.9973 182.836 29.32C181.94 30.6 181.492 32.4987 181.492 35.016C181.492 37.5333 181.94 39.4533 182.836 40.776C183.775 42.0987 185.034 42.76 186.612 42.76C188.874 42.76 190.367 41.5867 191.092 39.24H204.404C203.508 43.6773 201.503 47.1547 198.388 49.672C195.274 52.1893 191.434 53.448 186.868 53.448C183.327 53.448 180.17 52.7013 177.396 51.208C174.666 49.7147 172.532 47.5813 170.996 44.808C169.46 42.0347 168.692 38.7707 168.692 35.016ZM243.919 34.632C243.919 35.6133 243.855 36.5947 243.727 37.576H219.983C220.111 39.5387 220.645 41.0107 221.583 41.992C222.565 42.9307 223.802 43.4 225.295 43.4C227.386 43.4 228.879 42.4613 229.775 40.584H243.151C242.597 43.0587 241.509 45.2773 239.887 47.24C238.309 49.16 236.303 50.6747 233.871 51.784C231.439 52.8933 228.751 53.448 225.807 53.448C222.266 53.448 219.109 52.7013 216.335 51.208C213.605 49.7147 211.45 47.5813 209.871 44.808C208.335 42.0347 207.567 38.7707 207.567 35.016C207.567 31.2613 208.335 28.0187 209.871 25.288C211.407 22.5147 213.541 20.3813 216.271 18.888C219.045 17.3947 222.223 16.648 225.807 16.648C229.349 16.648 232.485 17.3733 235.215 18.824C237.946 20.2747 240.079 22.3653 241.615 25.096C243.151 27.784 243.919 30.9627 243.919 34.632ZM231.119 31.496C231.119 29.96 230.607 28.7653 229.583 27.912C228.559 27.016 227.279 26.568 225.743 26.568C224.207 26.568 222.949 26.9947 221.967 27.848C220.986 28.6587 220.346 29.8747 220.047 31.496H231.119ZM264.349 53.448C261.106 53.448 258.205 52.9147 255.645 51.848C253.127 50.7387 251.122 49.2453 249.629 47.368C248.178 45.448 247.367 43.2933 247.197 40.904H259.357C259.527 42.056 260.061 42.952 260.957 43.592C261.853 44.232 262.962 44.552 264.285 44.552C265.309 44.552 266.119 44.3387 266.717 43.912C267.314 43.4853 267.613 42.9307 267.613 42.248C267.613 41.352 267.122 40.6907 266.141 40.264C265.159 39.8373 263.538 39.368 261.277 38.856C258.717 38.344 256.583 37.768 254.877 37.128C253.17 36.488 251.677 35.4427 250.397 33.992C249.159 32.5413 248.541 30.5787 248.541 28.104C248.541 25.9707 249.117 24.0507 250.269 22.344C251.421 20.5947 253.106 19.208 255.325 18.184C257.586 17.16 260.295 16.648 263.453 16.648C268.146 16.648 271.837 17.8 274.525 20.104C277.213 22.408 278.77 25.4373 279.197 29.192H267.869C267.655 28.04 267.143 27.1653 266.333 26.568C265.565 25.928 264.519 25.608 263.197 25.608C262.173 25.608 261.383 25.8 260.829 26.184C260.317 26.568 260.061 27.1013 260.061 27.784C260.061 28.6373 260.551 29.2987 261.533 29.768C262.514 30.1947 264.093 30.6427 266.269 31.112C268.871 31.6667 271.026 32.2853 272.733 32.968C274.482 33.6507 275.997 34.76 277.277 36.296C278.599 37.7893 279.261 39.8373 279.261 42.44C279.261 44.5307 278.642 46.408 277.405 48.072C276.21 49.736 274.482 51.0587 272.221 52.04C270.002 52.9787 267.378 53.448 264.349 53.448Z" fill="#828282"/>
</svg>
